<?xml version="1.0" encoding="UTF-8"?>
<svg width="24px" height="24px" viewBox="0 0 24 24" version="1.1" xmlns="http://www.w3.org/2000/svg">
    <g stroke="none" stroke-width="1" fill="none" fill-rule="evenodd">
        <path d="M12,2 C6.48,2 2,6.48 2,12 C2,17.52 6.48,22 12,22 C17.52,22 22,17.52 22,12 C22,6.48 17.52,2 12,2 Z M12,20 C7.59,20 4,16.41 4,12 C4,7.59 7.59,4 12,4 C16.41,4 20,7.59 20,12 C20,16.41 16.41,20 12,20 Z" fill="#4A90E2"/>
        <path d="M8,10 C8.55,10 9,9.55 9,9 C9,8.45 8.55,8 8,8 C7.45,8 7,8.45 7,9 C7,9.55 7.45,10 8,10 Z" fill="#4A90E2"/>
        <path d="M16,10 C16.55,10 17,9.55 17,9 C17,8.45 16.55,8 16,8 C15.45,8 15,8.45 15,9 C15,9.55 15.45,10 16,10 Z" fill="#4A90E2"/>
        <path d="M12,17.5 C9.67,17.5 7.69,16.04 6.89,14 L17.11,14 C16.31,16.04 14.33,17.5 12,17.5 Z" fill="#4A90E2"/>
    </g>
</svg> 